<?xml version="1.0" standalone="no"?>
<!DOCTYPE svg PUBLIC "-//W3C//DTD SVG 20010904//EN"
 "http://www.w3.org/TR/2001/REC-SVG-20010904/DTD/svg10.dtd">
<svg version="1.0" xmlns="http://www.w3.org/2000/svg"
 width="300.000000pt" height="300.000000pt" viewBox="0 0 300.000000 300.000000"
 preserveAspectRatio="xMidYMid meet">
<metadata>
Created by potrace 1.10, written by Peter Selinger 2001-2011
</metadata>
<g transform="translate(0.000000,300.000000) scale(0.100000,-0.100000)"
fill="#000000" stroke="none">
<path d="M1502 2175 c-23 -14 -49 -25 -56 -25 -9 0 -13 -11 -12 -32 2 -18 -2
-40 -8 -48 -8 -12 -8 -13 4 -3 7 7 15 23 17 35 4 23 11 34 16 27 10 -11 -15
-65 -34 -77 -11 -8 -18 -9 -14 -3 3 6 2 11 -3 11 -17 0 -72 -70 -72 -92 0 -12
-3 -19 -6 -15 -14 14 10 63 49 99 23 21 37 38 31 38 -18 0 -74 -61 -95 -104
-17 -36 -17 -41 -4 -56 15 -17 11 -50 -6 -50 -5 0 -9 -17 -9 -37 0 -27 -3 -34
-9 -23 -6 8 -7 18 -4 24 4 5 1 6 -7 1 -10 -6 -12 -4 -7 7 3 9 -3 24 -13 33
-18 17 -20 17 -26 1 -4 -11 2 -27 18 -44 23 -25 48 -64 48 -75 0 -7 -45 -2
-58 7 -7 4 -12 12 -12 18 0 6 8 4 18 -5 34 -31 35 -18 2 20 -28 31 -31 42 -27
76 5 36 4 38 -10 24 -18 -18 -20 -60 -6 -121 10 -48 34 -66 63 -48 11 6 26 12
33 12 14 0 30 43 42 112 9 50 43 64 133 52 107 -14 159 -4 193 37 39 47 46 89
22 136 -11 20 -26 39 -34 42 -12 4 -12 2 1 -15 12 -17 12 -17 0 -6 -8 7 -15
18 -15 24 0 6 -9 16 -20 22 -11 6 -31 19 -44 29 -29 21 -27 21 -79 -8z m57
-19 c35 -42 18 -126 -31 -160 -17 -12 -19 -16 -6 -16 25 0 65 55 73 100 4 25
11 38 17 33 7 -4 9 2 6 15 -4 12 -3 20 2 17 19 -12 20 -70 0 -110 -28 -59 -49
-74 -106 -80 -27 -3 -66 -8 -86 -11 -21 -3 -38 -4 -38 -1 0 3 24 16 53 31 65
32 101 77 102 131 1 22 -2 46 -8 53 -14 17 7 16 22 -2z m-51 -22 c47 -32 20
-90 -61 -130 -29 -14 -62 -38 -74 -52 l-23 -27 0 26 c0 29 31 62 81 87 45 23
68 65 51 92 -15 24 -5 26 26 4z m152 -90 c0 -39 -5 -51 -34 -80 -22 -22 -40
-32 -50 -28 -14 5 -12 10 10 33 35 34 64 81 64 104 0 9 2 17 5 17 3 0 5 -21 5
-46z m13 -73 c-11 -13 -26 -27 -33 -29 -8 -3 -2 9 13 27 17 21 28 46 29 69 l1
37 4 -39 c3 -28 -1 -47 -14 -65z"/>
<path d="M1291 2042 c-23 -22 -41 -48 -41 -60 0 -31 27 -27 34 5 4 14 21 39
37 54 16 15 25 30 20 33 -5 4 -28 -11 -50 -32z"/>
<path d="M1716 1995 c-4 -15 -17 -37 -30 -50 -23 -22 -23 -26 -11 -62 7 -22
17 -98 21 -171 4 -73 11 -132 16 -132 22 0 40 73 34 139 -3 36 -6 81 -6 99 0
19 -7 46 -16 62 -16 26 -16 29 0 51 18 26 21 56 7 77 -6 10 -10 7 -15 -13z"/>
<path d="M1446 1859 c-43 -10 -76 -34 -76 -56 0 -7 -9 -22 -20 -33 -11 -11
-15 -20 -10 -20 6 0 10 -13 10 -28 0 -17 10 -38 24 -51 28 -26 97 -45 107 -30
3 6 10 9 14 7 9 -3 21 15 35 55 11 32 36 36 45 7 4 -12 25 -39 47 -61 l40 -40
-17 -44 c-9 -26 -40 -69 -72 -101 -52 -52 -58 -55 -90 -49 l-35 6 28 -28 c16
-15 36 -39 45 -53 l17 -25 7 48 c4 26 11 47 16 47 17 0 81 64 100 101 23 46
24 77 4 106 -14 20 -14 22 7 26 20 4 19 4 -5 6 -54 2 -98 76 -65 109 19 19 56
14 63 -9 4 -11 9 -18 12 -16 3 3 2 15 -2 26 -4 15 -15 21 -36 21 -16 0 -29 4
-29 10 0 14 39 32 56 26 20 -8 17 8 -5 28 -24 22 -76 26 -76 6 0 -9 12 -17 29
-20 l29 -5 -27 -15 c-15 -8 -30 -25 -32 -40 -7 -30 -54 -40 -54 -11 0 10 -10
27 -23 39 -32 30 -42 28 -12 -3 17 -16 25 -35 25 -60 0 -41 -36 -85 -70 -85
-29 0 -76 26 -84 45 -25 66 12 118 92 129 43 5 52 10 52 26 0 22 -6 23 -64 9z"/>
<path d="M1420 1777 c-17 -9 -26 -22 -27 -42 -1 -17 1 -21 3 -10 3 11 17 30
32 42 30 26 28 28 -8 10z"/>
<path d="M1475 1766 c18 -13 18 -14 -9 -9 -19 4 -27 2 -22 -5 3 -6 0 -12 -6
-15 -10 -3 -9 -9 4 -22 21 -23 44 -14 50 19 5 25 -7 46 -26 46 -5 0 -1 -6 9
-14z"/>
<path d="M1614 1752 c3 -6 1 -12 -6 -14 -18 -6 0 -40 19 -36 25 5 24 52 -1 56
-10 2 -16 0 -12 -6z"/>
<path d="M1280 1729 c0 -5 4 -8 8 -5 5 3 8 -3 8 -12 0 -48 5 -72 14 -72 6 0
10 23 10 50 0 43 -3 50 -20 50 -11 0 -20 -5 -20 -11z"/>
<path d="M1221 1691 c-10 -6 -12 -20 -8 -47 7 -41 37 -74 67 -74 10 0 27 -11
38 -25 27 -34 36 -31 17 5 -11 21 -23 30 -40 30 -17 0 -29 9 -40 30 -19 37
-19 49 2 72 15 17 15 18 -3 18 -10 0 -25 -4 -33 -9z"/>
<path d="M1553 1637 c-41 -14 -41 -19 -2 -36 24 -11 33 -11 42 -1 9 10 9 14 0
17 -7 2 -9 11 -6 19 3 8 4 13 2 13 -2 -1 -19 -7 -36 -12z"/>
<path d="M1447 1603 c-11 -10 -8 -21 6 -20 6 1 32 -5 56 -12 45 -13 105 -8
116 9 4 6 -5 6 -21 0 -33 -13 -110 -3 -129 16 -15 16 -19 17 -28 7z"/>
<path d="M1410 1460 c39 -34 55 -39 41 -11 -6 10 -25 24 -43 30 l-33 11 35
-30z"/>
<path d="M2147 1373 c-20 -43 -42 -85 -48 -94 -8 -10 -9 -24 -4 -35 4 -11 7
-23 6 -29 -1 -5 3 -4 10 3 10 9 10 15 1 24 -20 20 -14 28 20 28 29 0 30 -1 15
-18 -24 -26 -21 -56 7 -88 l23 -28 27 29 c14 15 26 34 26 41 0 25 19 25 26 0
5 -20 -1 -32 -25 -57 -18 -17 -34 -29 -37 -27 -10 10 -64 -51 -64 -71 0 -13
-9 -25 -22 -31 l-23 -9 23 0 c16 -1 21 -5 15 -13 -4 -7 -9 -32 -10 -54 -4
-113 -109 -205 -180 -159 -40 26 -167 164 -175 188 -3 12 -7 45 -8 72 -2 43
-3 46 -9 20 -4 -16 -5 -52 -3 -78 3 -37 -1 -53 -15 -69 -15 -17 -19 -41 -21
-165 -4 -137 -5 -145 -25 -153 -19 -8 -18 -9 8 -7 30 2 30 1 31 -48 0 -27 8
-72 16 -100 20 -67 23 -168 6 -182 -7 -6 -24 -13 -38 -16 -21 -4 -20 -4 8 -6
17 0 32 -6 32 -12 0 -19 -41 -69 -57 -69 -13 0 -13 -2 -2 -16 9 -11 13 -38 11
-80 -3 -63 -3 -64 22 -64 26 0 26 0 26 88 0 81 2 88 23 97 16 7 23 20 26 50 9
97 4 178 -17 285 -13 68 -25 175 -28 260 l-6 145 73 -76 c88 -91 131 -119 181
-119 50 0 103 47 140 125 23 49 28 73 28 136 0 71 1 76 25 87 14 7 28 19 31
27 4 10 14 13 29 9 45 -11 79 87 35 101 -11 3 -20 12 -20 20 0 7 -7 15 -15 19
-8 3 -20 17 -25 31 -5 14 -15 25 -21 25 -7 0 -8 -7 -4 -17 15 -33 18 -83 6
-83 -7 0 -10 -4 -7 -9 3 -4 -1 -17 -9 -27 -22 -31 -40 -5 -26 38 6 18 9 49 7
68 -3 24 5 52 25 93 17 32 27 62 24 67 -15 24 -35 4 -68 -67z"/>
<path d="M1400 1365 c-7 -8 -16 -12 -21 -9 -5 3 -18 0 -29 -6 -26 -14 -20 -42
28 -129 l35 -64 -2 -126 c-5 -243 -8 -298 -31 -529 -12 -128 -19 -236 -16
-240 15 -14 23 24 30 131 3 62 15 186 26 277 11 90 23 230 26 310 6 139 5 148
-18 205 -23 56 -24 64 -12 115 7 30 13 61 14 68 0 16 -15 15 -30 -3z m-8 -83
c1 -28 0 -52 -3 -52 -3 0 -14 17 -23 39 -15 31 -16 43 -6 61 17 31 28 14 32
-48z"/>
<path d="M1568 1343 c13 -82 12 -85 -48 -105 l-55 -18 43 4 c63 6 92 29 92 72
0 24 4 33 12 28 8 -5 9 -2 5 10 -4 10 -3 15 3 11 6 -3 10 -16 10 -27 0 -30
-22 -98 -31 -98 -9 0 -33 -79 -26 -86 7 -7 77 153 78 178 1 16 4 13 9 -12 l8
-35 -1 35 c-2 28 -8 37 -32 49 -16 8 -38 18 -47 23 -26 12 -27 11 -20 -29z"/>
<path d="M270 1331 c0 -15 109 -414 126 -458 16 -43 16 -43 67 -43 73 0 96 -8
112 -40 20 -39 105 -70 189 -70 62 0 64 -1 76 -32 28 -71 101 -120 177 -120
70 0 107 37 173 170 30 61 58 111 61 111 18 2 -17 -311 -47 -427 -21 -81 -10
-218 19 -233 18 -10 19 -17 13 -100 l-7 -89 26 0 c24 0 25 2 25 63 0 72 10 88
54 82 18 -3 9 2 -20 11 -42 13 -53 22 -62 48 -17 46 -17 46 36 41 l47 -5 -42
11 c-24 5 -47 18 -52 27 -12 22 -16 63 -8 82 6 16 52 161 62 198 12 41 -3 23
-34 -43 -16 -36 -32 -65 -35 -65 -5 0 50 125 64 145 9 14 5 90 -13 249 -1 14
9 22 45 32 48 15 73 34 42 34 -9 0 -84 -20 -166 -45 -83 -25 -152 -45 -153
-43 -3 4 -78 316 -100 421 -10 43 -22 80 -29 82 -28 8 -646 14 -646 6z m99
-57 c-10 -12 -2 -14 49 -14 34 0 64 -4 67 -10 7 -11 -95 -14 -132 -4 -27 7
-31 41 -5 47 25 5 35 -3 21 -19z m330 16 c89 0 171 -5 181 -10 11 -6 23 -36
34 -82 46 -195 69 -286 82 -321 19 -51 18 -55 -13 -60 -22 -3 -19 -4 12 -6 32
-2 36 -4 20 -11 -44 -19 29 -10 97 12 37 12 70 19 74 15 11 -11 -66 -150 -102
-184 -41 -40 -96 -45 -137 -13 -14 11 -30 20 -35 20 -23 0 -21 33 2 55 27 25
42 67 31 84 -12 20 -22 11 -17 -14 5 -29 -21 -65 -48 -65 -10 0 -29 9 -44 21
-14 11 -36 21 -48 22 -30 2 -38 14 -38 64 0 68 35 70 49 1 8 -36 16 -38 81
-19 l35 10 -35 -1 c-55 0 -67 3 -40 12 23 7 23 8 3 9 -13 1 -24 10 -28 22 -4
11 -19 26 -33 32 -15 6 -31 17 -37 23 -5 7 -33 24 -62 39 -44 23 -54 24 -72
13 -12 -7 -21 -18 -21 -25 0 -7 -11 -15 -24 -19 -14 -3 -32 -14 -42 -25 -20
-23 -67 -25 -88 -4 -16 16 -43 121 -33 131 3 3 12 2 20 -3 9 -4 48 -6 89 -3
68 5 73 6 71 28 -3 20 1 22 47 22 28 0 50 3 50 8 0 4 -18 6 -40 4 -25 -3 -40
0 -40 7 0 6 15 12 33 12 30 2 30 2 5 6 -49 7 -30 23 27 23 48 0 55 3 55 19 0
11 6 23 13 28 7 5 -22 13 -73 20 l-85 12 130 -2 c115 -2 130 0 133 15 2 13 -6
18 -35 23 -21 3 -59 12 -84 20 -26 8 -69 15 -95 15 -27 0 -64 4 -81 9 -18 5
-35 6 -38 1 -2 -4 -19 -6 -37 -4 -18 1 -36 3 -40 3 -5 1 -8 4 -8 9 0 4 26 6
58 5 31 -2 131 -3 221 -3z m-139 -40 c0 -5 -13 -10 -30 -10 -16 0 -30 5 -30
10 0 6 14 10 30 10 17 0 30 -4 30 -10z m113 -7 c-18 -2 -48 -2 -65 0 -18 2 -4
4 32 4 36 0 50 -2 33 -4z m-220 -20 c-18 -2 -48 -2 -65 0 -18 2 -4 4 32 4 36
0 50 -2 33 -4z m98 -7 c-9 -11 -9 -15 1 -19 7 -3 3 -6 -9 -6 -13 -1 -23 5 -24
12 0 10 -2 10 -6 0 -6 -15 -43 -17 -43 -3 0 6 7 10 16 10 8 0 12 5 9 10 -4 6
9 10 31 10 30 0 34 -2 25 -14z m104 4 c4 -6 -12 -10 -39 -10 -25 0 -46 5 -46
10 0 6 18 10 39 10 22 0 43 -4 46 -10z m80 0 c4 -6 -8 -10 -29 -10 -20 0 -36
5 -36 10 0 6 13 10 29 10 17 0 33 -4 36 -10z m-280 -20 c4 -6 -5 -10 -20 -10
-15 0 -24 -4 -20 -10 3 -6 -5 -10 -18 -10 -24 0 -42 21 -30 34 10 10 81 7 88
-4z m175 -31 c0 -8 -29 -9 -97 -4 -54 4 -100 9 -102 11 -2 2 41 4 97 4 67 0
102 -4 102 -11z m-170 -19 c0 -6 10 -15 23 -20 20 -8 19 -9 -11 -9 -19 -1 -31
-5 -27 -11 4 -6 -7 -10 -24 -10 -24 0 -31 4 -31 20 0 14 7 20 23 21 18 1 16 3
-8 9 -28 7 -27 8 13 9 23 0 42 -4 42 -9z m70 0 c0 -5 -13 -10 -30 -10 -16 0
-30 5 -30 10 0 6 14 10 30 10 17 0 30 -4 30 -10z m150 -8 c0 -5 -26 -7 -57 -5
-84 6 -88 11 -10 12 37 1 67 -3 67 -7z m-90 -63 c0 -8 -29 -9 -97 -4 -54 4
-100 9 -102 11 -2 2 41 4 97 4 67 0 102 -4 102 -11z m-84 -24 c9 -8 29 -15 45
-15 16 0 29 -5 29 -11 0 -7 -9 -9 -22 -5 -13 3 -53 6 -90 6 -44 0 -68 4 -68
11 0 8 15 10 45 6 57 -6 50 4 -8 14 l-42 6 48 2 c31 1 54 -4 63 -14z m152
-193 c3 -82 2 -83 -20 -80 -21 3 -23 9 -26 72 -3 80 1 99 25 94 15 -3 18 -16
21 -86z m66 36 c3 -7 7 -41 10 -74 5 -55 3 -62 -13 -67 -11 -2 -24 0 -30 6
-12 12 -15 129 -4 140 11 11 33 8 37 -5z m-136 -40 c3 -22 -1 -28 -16 -28 -20
0 -32 18 -32 47 0 9 8 13 23 11 16 -2 23 -11 25 -30z"/>
<path d="M1292 1298 c-27 -27 -13 -63 48 -123 33 -33 60 -54 60 -48 0 6 -12
22 -27 35 -16 14 -41 39 -57 56 -27 29 -28 34 -16 57 15 28 10 41 -8 23z"/>
<path d="M1686 1273 c-4 -9 -1 -20 5 -24 8 -5 0 -21 -26 -53 -41 -51 -50 -56
-42 -26 8 32 -8 15 -28 -30 -12 -28 -21 -37 -26 -28 -5 7 -6 -12 -3 -42 16
-185 44 -635 44 -708 0 -48 5 -94 11 -102 8 -11 8 37 3 165 -5 99 -8 213 -9
253 0 39 -3 72 -7 72 -5 0 -8 29 -8 64 0 51 4 66 19 77 18 13 19 21 11 99 l-9
85 3 -83 c2 -46 0 -85 -4 -87 -9 -6 -24 214 -16 222 3 4 6 -2 6 -13 1 -18 1
-18 13 2 22 38 65 84 79 84 17 0 76 -61 153 -160 33 -41 63 -76 67 -78 4 -2 8
-16 8 -30 1 -24 2 -25 11 -9 7 13 7 27 0 48 -17 50 -148 216 -195 249 -28 19
-43 36 -40 44 3 8 1 17 -4 20 -6 3 -13 -2 -16 -11z"/>
<path d="M1920 1255 c-14 -17 4 -45 78 -123 23 -24 42 -47 42 -49 0 -2 -11
-14 -25 -27 -28 -26 -61 -96 -45 -96 6 0 14 8 17 18 12 31 29 42 43 29 10 -10
12 -7 7 11 -5 22 7 30 18 12 3 -5 12 -10 18 -10 7 0 4 5 -5 11 -10 5 -18 21
-18 35 0 22 2 23 20 14 31 -17 21 9 -17 44 -18 16 -33 38 -33 48 0 10 -9 28
-20 41 -11 12 -27 30 -35 40 -18 21 -29 22 -45 2z"/>
<path d="M1223 1205 c-23 -16 -79 -109 -108 -178 -16 -39 -12 -53 6 -14 31 70
70 131 99 157 36 32 39 60 3 35z"/>
<path d="M1246 1023 c6 -56 -12 -73 -78 -73 -35 0 -54 5 -62 16 -11 14 -13 13
-23 -9 l-12 -26 98 -3 c54 -2 112 0 127 3 23 5 24 7 7 8 -17 1 -24 9 -29 39
-4 20 -13 48 -20 62 -12 24 -13 23 -8 -17z"/>
<path d="M1063 869 c-1 -12 5 -19 15 -19 13 0 14 2 4 9 -11 7 -10 10 3 15 9 3
24 6 33 5 14 0 13 -2 -3 -9 -32 -14 -4 -11 45 5 l45 14 -70 -1 c-62 -1 -71 -3
-72 -19z"/>
<path d="M1381 204 c1 -28 4 -38 6 -24 3 14 9 28 14 31 5 3 50 5 100 4 67 -1
93 -5 100 -16 6 -10 9 -7 9 14 l0 27 -99 0 c-55 0 -106 3 -115 6 -13 5 -16 -2
-15 -42z"/>
<path d="M1453 145 c-13 -9 -25 -34 -32 -65 -15 -69 -14 -80 7 -80 15 0 20 12
28 63 8 57 11 62 34 62 23 0 26 -5 34 -62 7 -51 12 -63 27 -63 16 0 18 6 13
57 -8 86 -58 125 -111 88z"/>
</g>
</svg>
